<svg xmlns="http://www.w3.org/2000/svg" width="262.589" height="262.708" viewBox="0 0 262.589 262.708">
  <defs>
    <style>
      .cls-1 {
        fill: #c1cfd4;
      }

      .cls-2 {
        fill: #383838;
      }

      .cls-3 {
        fill: #999;
      }

      .cls-4 {
        fill: #707070;
      }

      .cls-5 {
        fill: #115071;
      }

      .cls-6 {
        fill: #073856;
      }

      .cls-7 {
        fill: #858585;
      }

      .cls-8 {
        fill: #f6f6f4;
      }

      .cls-9 {
        fill: #5d5d5d;
      }

      .cls-10 {
        fill: #0d3956;
      }

      .cls-11 {
        fill: #16c5d5;
      }

      .cls-12 {
        fill: #fff;
      }

      .cls-13 {
        fill: #d1e9f5;
      }

      .cls-14 {
        fill: #9b1a00;
      }

      .cls-15 {
        fill: #fd6220;
      }

      .cls-16 {
        fill: #1b5e92;
      }

      .cls-17 {
        fill: #feffff;
      }

      .cls-18 {
        fill: #dbdbdb;
      }

      .cls-19 {
        fill: #afd4dd;
      }

      .cls-20 {
        fill: #cceaf2;
      }

      .cls-21 {
        fill: #c63914;
      }

      .cls-22 {
        fill: #dd4919;
      }

      .cls-23 {
        fill: #3475b9;
      }

      .cls-24 {
        fill: #306dac;
      }

      .cls-25 {
        fill: #184f78;
      }

      .cls-26 {
        fill: #44494c;
      }

      .cls-27 {
        fill: #23648c;
      }

      .cls-28 {
        fill: #2493bc;
      }

      .cls-29 {
        fill: #4ecad1;
      }

      .cls-30 {
        fill: #8be2ea;
      }

      .cls-31 {
        fill: #ffd983;
      }

      .cls-32 {
        fill: #f78f1e;
      }

      .cls-33 {
        fill: #bebebe;
      }

      .cls-34 {
        fill: #d6d6d6;
      }

      .cls-35 {
        fill: #ebebeb;
      }

      .cls-36 {
        fill: #b72b06;
      }
    </style>
  </defs>
  <g id="Group_630" data-name="Group 630" transform="translate(-6 -12.647)">
    <path id="Path_1" data-name="Path 1" class="cls-1" d="M92.967,272.383,242.3,186.168a27.44,27.44,0,0,0,9.464-9.978l0-.856c-.011-4.225-1.521-7.189-3.946-8.578l-63.725-39.577-9.739-5.661c-2.445-1.42-5.827-1.224-9.549.929L15.468,208.658c-3.7,2.141-9.277,5.544-9.459,10.872-.143,4.183,1.5,7.146,3.9,8.535l73.5,45.258-.022-.023C85.828,274.731,89.218,274.547,92.967,272.383Z"/>
    <path id="Path_2" data-name="Path 2" class="cls-1" d="M241.474,189.268l-34.38,19.943,24.463,13.641L267,201.831Z"/>
    <g id="Group_85" data-name="Group 85">
      <g id="Group_84" data-name="Group 84">
        <g id="Group_81" data-name="Group 81">
          <path id="Path_68" data-name="Path 68" class="cls-2" d="M146.132,275.354l-32.469-18.873-.021-6.993,32.471,18.87Z"/>
        </g>
        <g id="Group_82" data-name="Group 82">
          <path id="Path_69" data-name="Path 69" class="cls-3" d="M146.114,268.358l-32.471-18.87,65.1-37.578,32.469,18.866Z"/>
        </g>
        <g id="Group_83" data-name="Group 83">
          <path id="Path_70" data-name="Path 70" class="cls-4" d="M211.207,230.776l.022,6.992-65.1,37.586-.018-7Z"/>
        </g>
      </g>
    </g>
    <g id="Group_90" data-name="Group 90">
      <g id="Group_89" data-name="Group 89">
        <g id="Group_86" data-name="Group 86">
          <path id="Path_71" data-name="Path 71" class="cls-5" d="M161.62,243.624l-9.738-5.66-.018-16.138,9.743,5.655Z"/>
        </g>
        <g id="Group_87" data-name="Group 87">
          <path id="Path_72" data-name="Path 72" class="cls-6" d="M161.607,227.481l-9.743-5.655,11.356-6.557,9.738,5.658Z"/>
        </g>
        <g id="Group_88" data-name="Group 88">
          <path id="Path_73" data-name="Path 73" class="cls-7" d="M172.957,220.928l.048,16.12-11.386,6.576-.013-16.143Z"/>
        </g>
      </g>
    </g>
    <g id="Group_195" data-name="Group 195">
      <g id="Group_193" data-name="Group 193">
        <g id="Group_192" data-name="Group 192">
          <g id="Group_91" data-name="Group 91">
            <path id="Path_74" data-name="Path 74" class="cls-6" d="M244.145,172.557,234.4,166.9,234,26.186l9.743,5.659Z"/>
          </g>
          <g id="Group_92" data-name="Group 92">
            <path id="Path_75" data-name="Path 75" class="cls-3" d="M241.548,13.555l9.739,5.662c-2.443-1.419-5.826-1.222-9.552.926L232,14.484C235.72,12.332,239.1,12.136,241.548,13.555Z"/>
          </g>
          <g id="Group_93" data-name="Group 93">
            <path id="Path_76" data-name="Path 76" class="cls-2" d="M90.807,261.087l-9.741-5.664L234.4,166.9l9.742,5.66Z"/>
          </g>
          <g id="Group_94" data-name="Group 94">
            <path id="Path_77" data-name="Path 77" class="cls-8" d="M241.371,30.475,88.035,119l.4,140.716L241.77,171.191Z"/>
          </g>
          <path id="Path_78" data-name="Path 78" class="cls-9" d="M230.056,41.207,102.806,114.675V249.858l127.249-73.467Z"/>
          <g id="Group_188" data-name="Group 188">
            <g id="Group_113" data-name="Group 113">
              <g id="Group_112" data-name="Group 112">
                <g id="Group_111" data-name="Group 111">
                  <g id="Group_95" data-name="Group 95">
                    <path id="Path_79" data-name="Path 79" class="cls-10" d="M154.347,194.491l-4.849-2.817c.423-.251.846-.513,1.263-.8l4.848,2.815C155.192,193.977,154.77,194.242,154.347,194.491Z"/>
                  </g>
                  <path id="Path_80" data-name="Path 80" class="cls-10" d="M162.349,172.665c-.005-.127-.006-.182-.008-.235-.007-.116-.01-.173-.014-.23-.01-.118-.015-.171-.019-.22v0c-.013-.128-.018-.174-.024-.22,0-.03-.007-.058-.011-.087s-.011-.086-.016-.128-.009-.058-.016-.086-.012-.083-.019-.125-.011-.057-.016-.086-.013-.074-.021-.111l0-.012c-.006-.028-.012-.054-.017-.081s-.016-.079-.025-.117-.014-.059-.022-.089-.017-.071-.026-.105-.016-.063-.025-.093-.017-.066-.026-.1-.02-.064-.031-.1-.016-.058-.027-.087v0c-.011-.032-.022-.062-.032-.1s-.018-.055-.028-.084l-.038-.1-.014-.007a4.473,4.473,0,0,0-1.886-2.368l-5.262-3.059a4.573,4.573,0,0,1,2,2.656v0a6.77,6.77,0,0,1,.2.77v0l0,.007q.08.4.122.842h0v.005c.028.295.043.6.043.923,0,.08,0,.157,0,.239,0,.027,0,.052,0,.079,0,.054,0,.109-.005.164,0,.023,0,.046,0,.067,0,.059-.005.119-.009.178,0,.027-.005.053-.007.081,0,.054-.007.108-.011.161,0,.035-.006.068-.009.1l-.013.144c0,.039-.009.077-.012.114s-.009.089-.015.132-.011.08-.016.12-.01.086-.016.127-.013.087-.019.129l-.018.12c-.008.046-.015.092-.022.137s-.013.074-.02.111l-.027.153c-.007.031-.012.062-.018.094-.011.057-.023.113-.035.169-.005.027-.01.053-.017.079-.011.061-.026.123-.053.248-.015.067-.032.132-.059.248l-.063.244c-.021.083-.044.165-.066.247a18.492,18.492,0,0,1-1.3,3.3,18.2,18.2,0,0,1-4.841,6.055,12.378,12.378,0,0,1-1.222.851c-.065.04-.132.084-.2.122-2.257,1.3-4.3,1.424-5.777.565l5.261,3.058c1.476.858,3.52.738,5.778-.565.066-.037.132-.083.2-.121a12.779,12.779,0,0,0,1.222-.851,18.927,18.927,0,0,0,6.138-9.361c.023-.082.045-.163.067-.245.026-.1.045-.174.062-.246.029-.116.044-.183.059-.248l.056-.248.015-.079c.012-.057.024-.112.035-.17.006-.031.011-.062.017-.094.01-.05.019-.1.029-.152.006-.036.012-.074.019-.111s.015-.092.022-.138.012-.078.019-.119.012-.085.018-.128.011-.085.016-.127.011-.08.016-.12.01-.089.015-.133.008-.076.012-.113.009-.1.013-.144.007-.068.009-.1c0-.054.009-.108.012-.163,0-.027,0-.053.006-.081l.009-.175,0-.069c0-.055,0-.111.005-.165l0-.078c0-.08,0-.161,0-.24S162.351,172.744,162.349,172.665Z"/>
                  <g id="Group_96" data-name="Group 96">
                    <path id="Path_81" data-name="Path 81" class="cls-10" d="M152.716,195.363l-4.849-2.818-2.131-3.2,4.848,2.816Z"/>
                  </g>
                  <g id="Group_97" data-name="Group 97">
                    <path id="Path_82" data-name="Path 82" class="cls-10" d="M163.433,164.3l-4.848-2.818,4.312-1.535,4.849,2.817Z"/>
                  </g>
                  <g id="Group_98" data-name="Group 98">
                    <path id="Path_83" data-name="Path 83" class="cls-10" d="M144.265,195.983l-4.848-2.817.53-5.305,4.849,2.818Z"/>
                  </g>
                  <g id="Group_99" data-name="Group 99">
                    <path id="Path_84" data-name="Path 84" class="cls-11" d="M161.607,158.389l-4.848-2.818a7.659,7.659,0,0,1,2.355.611L163.963,159A7.61,7.61,0,0,0,161.607,158.389Z"/>
                  </g>
                  <g id="Group_100" data-name="Group 100">
                    <path id="Path_85" data-name="Path 85" class="cls-10" d="M157.65,162.816,152.8,160l3.957-4.428,4.848,2.818Z"/>
                  </g>
                  <g id="Group_101" data-name="Group 101">
                    <path id="Path_86" data-name="Path 86" class="cls-11" d="M154.249,160.28l-4.848-2.818c.429-.247.845-.469,1.269-.664l4.848,2.82C155.1,159.81,154.679,160.032,154.249,160.28Z"/>
                  </g>
                  <g id="Group_102" data-name="Group 102">
                    <path id="Path_87" data-name="Path 87" class="cls-11" d="M140.482,192.214l-4.848-2.816a11.5,11.5,0,0,1-.9-2.645l4.848,2.817A11.476,11.476,0,0,0,140.482,192.214Z"/>
                  </g>
                  <g id="Group_103" data-name="Group 103">
                    <path id="Path_88" data-name="Path 88" class="cls-10" d="M139.578,189.57l-4.848-2.817,2.993-5.418,4.848,2.818Z"/>
                  </g>
                  <path id="Path_89" data-name="Path 89" class="cls-11" d="M150.67,156.8c-.479.221-.962.468-1.45.75s-.971.593-1.449.926l4.849,2.817c.477-.333.96-.643,1.448-.925s.973-.53,1.45-.748Z"/>
                  <g id="Group_104" data-name="Group 104">
                    <path id="Path_90" data-name="Path 90" class="cls-10" d="M150.513,166.936l-4.848-2.817,2.107-5.645,4.849,2.817Z"/>
                  </g>
                  <g id="Group_105" data-name="Group 105">
                    <path id="Path_91" data-name="Path 91" class="cls-10" d="M142.571,184.153l-4.848-2.818-3.013-1.943,4.848,2.817Z"/>
                  </g>
                  <g id="Group_106" data-name="Group 106">
                    <path id="Path_92" data-name="Path 92" class="cls-11" d="M139.558,182.209l-4.849-2.817a28.68,28.68,0,0,1,.886-3.685l4.848,2.818A28.456,28.456,0,0,0,139.558,182.209Z"/>
                  </g>
                  <g id="Group_107" data-name="Group 107">
                    <path id="Path_93" data-name="Path 93" class="cls-10" d="M140.443,178.525l-4.848-2.818,4.308-3.439,4.849,2.818Z"/>
                  </g>
                  <g id="Group_108" data-name="Group 108">
                    <path id="Path_94" data-name="Path 94" class="cls-10" d="M146.543,167.086l-4.849-2.817,3.971-.15,4.848,2.817Z"/>
                  </g>
                  <g id="Group_109" data-name="Group 109">
                    <path id="Path_95" data-name="Path 95" class="cls-11" d="M144.193,170.414l-4.848-2.818a35.825,35.825,0,0,1,2.349-3.327l4.849,2.817A35.716,35.716,0,0,0,144.193,170.414Z"/>
                  </g>
                  <g id="Group_110" data-name="Group 110">
                    <path id="Path_96" data-name="Path 96" class="cls-10" d="M144.751,175.085l-4.849-2.818-.558-4.671,4.848,2.818Z"/>
                  </g>
                </g>
              </g>
              <path id="Path_97" data-name="Path 97" class="cls-11" d="M168.67,172.773l-3.007-1.952,2.987-5.408a11.181,11.181,0,0,0-.9-2.651l-4.313,1.536.53-5.3a7.61,7.61,0,0,0-2.356-.612l-3.957,4.427-2.132-3.2c-.477.218-.96.466-1.45.748s-.971.592-1.448.925l-2.107,5.645-3.97.15a35.716,35.716,0,0,0-2.35,3.328l.558,4.671-4.308,3.44a28.456,28.456,0,0,0-.885,3.684l3.013,1.944-2.993,5.417a11.476,11.476,0,0,0,.9,2.644l4.314-1.535-.531,5.3a7.561,7.561,0,0,0,2.356.612l3.963-4.431,2.132,3.2c.477-.226.961-.473,1.451-.754s.97-.593,1.442-.918l2.112-5.647,3.97-.149a36.1,36.1,0,0,0,2.345-3.326l-.559-4.676,4.308-3.44A27.752,27.752,0,0,0,168.67,172.773ZM154.33,188.4v.009l-.181.108c-5.3,3.062-9.617.6-9.634-5.49s4.268-13.515,9.571-16.578c.06-.034.12-.069.182-.1v.01c5.22-2.9,9.435-.443,9.451,5.581S159.551,185.276,154.33,188.4Z"/>
              <path id="Path_98" data-name="Path 98" class="cls-12" d="M154.268,166.361v-.01c-.062.033-.122.068-.182.1-5.3,3.063-9.588,10.483-9.571,16.578s4.33,8.552,9.634,5.49l.181-.108V188.4c5.221-3.128,9.406-10.437,9.389-16.462S159.488,163.459,154.268,166.361Zm.022,20.026v.008c-.049.031-.1.059-.148.087-4.323,2.5-7.839.493-7.852-4.475s3.479-11.018,7.8-13.514c.05-.028.1-.057.148-.083v.008c4.257-2.365,7.693-.361,7.705,4.55S158.547,183.837,154.29,186.387Z"/>
            </g>
            <g id="Group_150" data-name="Group 150">
              <g id="Group_149" data-name="Group 149">
                <g id="Group_114" data-name="Group 114">
                  <path id="Path_99" data-name="Path 99" class="cls-13" d="M135.541,230.97l-4.848-2.818a26.654,26.654,0,0,0,2.08-1.7l4.849,2.818A26.668,26.668,0,0,1,135.541,230.97Z"/>
                </g>
                <g id="Group_115" data-name="Group 115">
                  <path id="Path_100" data-name="Path 100" class="cls-13" d="M137.622,229.27l-4.848-2.817.613-4.733,4.848,2.819Z"/>
                </g>
                <g id="Group_116" data-name="Group 116">
                  <path id="Path_101" data-name="Path 101" class="cls-13" d="M138.234,224.538l-4.848-2.819,3.279.515,4.848,2.818Z"/>
                </g>
                <g id="Group_117" data-name="Group 117">
                  <path id="Path_102" data-name="Path 102" class="cls-13" d="M135.542,230.97l-4.848-2.817-2.129-2.479,4.849,2.817Z"/>
                </g>
                <g id="Group_118" data-name="Group 118">
                  <path id="Path_103" data-name="Path 103" class="cls-13" d="M135.542,230.97l-4.848-2.817-2.129-2.479,4.849,2.817Z"/>
                </g>
                <g id="Group_119" data-name="Group 119">
                  <path id="Path_104" data-name="Path 104" class="cls-13" d="M145.46,206.627l-4.848-2.816,3.321.047,4.849,2.818Z"/>
                </g>
                <g id="Group_120" data-name="Group 120">
                  <path id="Path_105" data-name="Path 105" class="cls-13" d="M133.413,228.49l-4.849-2.817-.006-2.044,4.849,2.817Z"/>
                </g>
                <g id="Group_121" data-name="Group 121">
                  <path id="Path_106" data-name="Path 106" class="cls-13" d="M129.222,234.12l-4.849-2.817-.633-4.016,4.848,2.819Z"/>
                </g>
                <g id="Group_122" data-name="Group 122">
                  <path id="Path_107" data-name="Path 107" class="cls-13" d="M144.093,201.874l-4.848-2.816,3.678-1.878L147.772,200Z"/>
                </g>
                <g id="Group_123" data-name="Group 123">
                  <path id="Path_108" data-name="Path 108" class="cls-13" d="M123.6,234l-4.848-2.818.964-4.834,4.848,2.817Z"/>
                </g>
                <g id="Group_124" data-name="Group 124">
                  <path id="Path_109" data-name="Path 109" class="cls-13" d="M140.847,199.27,136,196.452l3.433-3.479,4.848,2.817Z"/>
                </g>
                <g id="Group_125" data-name="Group 125">
                  <path id="Path_110" data-name="Path 110" class="cls-13" d="M140.347,199.129l-4.849-2.818c.164.044.335.091.5.141l4.849,2.818C140.682,199.219,140.511,199.171,140.347,199.129Z"/>
                </g>
                <g id="Group_126" data-name="Group 126">
                  <path id="Path_111" data-name="Path 111" class="cls-12" d="M120.676,232.014l-4.849-2.818a7.976,7.976,0,0,1-1.043-1.43l4.848,2.816A7.89,7.89,0,0,0,120.676,232.014Z"/>
                </g>
                <g id="Group_127" data-name="Group 127">
                  <path id="Path_112" data-name="Path 112" class="cls-13" d="M119.632,230.582l-4.848-2.816,2.356-4.755,4.849,2.816Z"/>
                </g>
                <g id="Group_128" data-name="Group 128">
                  <path id="Path_113" data-name="Path 113" class="cls-13" d="M121.989,225.827l-4.848-2.816a1.127,1.127,0,0,1-.078-.2l4.848,2.817A1.117,1.117,0,0,0,121.989,225.827Z"/>
                </g>
                <g id="Group_129" data-name="Group 129">
                  <path id="Path_114" data-name="Path 114" class="cls-12" d="M138.838,194.887l-4.849-2.818a10.77,10.77,0,0,1,1.667-.1l4.848,2.819A10.512,10.512,0,0,0,138.838,194.887Z"/>
                </g>
                <g id="Group_130" data-name="Group 130">
                  <rect id="Rectangle_2" data-name="Rectangle 2" class="cls-13" width="5.155" height="5.609" transform="translate(131.397 196.525) rotate(-59.838)"/>
                </g>
                <g id="Group_131" data-name="Group 131">
                  <path id="Path_115" data-name="Path 115" class="cls-13" d="M135.575,199.558l-4.849-2.817c.226-.08.451-.152.669-.217l4.85,2.818C136.023,199.4,135.8,199.479,135.575,199.558Z"/>
                </g>
                <g id="Group_132" data-name="Group 132">
                  <path id="Path_116" data-name="Path 116" class="cls-13" d="M133.345,204.795l-4.849-2.819-.005-2.156,4.849,2.816Z"/>
                </g>
                <g id="Group_133" data-name="Group 133">
                  <path id="Path_117" data-name="Path 117" class="cls-13" d="M121.287,220.586l-4.849-2.819c.01-.152,0-.294.016-.438l4.848,2.817C121.291,220.292,121.3,220.433,121.287,220.586Z"/>
                </g>
                <g id="Group_134" data-name="Group 134">
                  <path id="Path_118" data-name="Path 118" class="cls-13" d="M117.976,224.463l-4.849-2.819,3.311-3.877,4.849,2.819Z"/>
                </g>
                <g id="Group_135" data-name="Group 135">
                  <path id="Path_119" data-name="Path 119" class="cls-12" d="M118.207,226.607l-4.847-2.816a18.59,18.59,0,0,1-.233-2.147l4.849,2.819A18.523,18.523,0,0,0,118.207,226.607Z"/>
                </g>
                <g id="Group_136" data-name="Group 136">
                  <path id="Path_120" data-name="Path 120" class="cls-13" d="M130.43,202.7l-4.848-2.817c.219-.189.444-.377.669-.557l4.849,2.819C130.874,202.322,130.649,202.508,130.43,202.7Z"/>
                </g>
                <g id="Group_137" data-name="Group 137">
                  <path id="Path_121" data-name="Path 121" class="cls-13" d="M133.34,202.636l-4.849-2.816-.017-5.747,4.849,2.817Z"/>
                </g>
                <path id="Path_122" data-name="Path 122" class="cls-12" d="M129.392,193.6c-.308.153-.6.293-.918.474s-.6.379-.906.579l4.85,2.817c.3-.2.6-.4.9-.579s.61-.319.917-.473Z"/>
                <g id="Group_138" data-name="Group 138">
                  <path id="Path_123" data-name="Path 123" class="cls-13" d="M131.1,202.143l-4.849-2.818,1.317-4.672,4.85,2.816Z"/>
                </g>
                <g id="Group_139" data-name="Group 139">
                  <path id="Path_124" data-name="Path 124" class="cls-13" d="M122.621,214.272l-4.848-2.818c.076-.214.163-.44.251-.657l4.849,2.819C122.784,213.83,122.7,214.057,122.621,214.272Z"/>
                </g>
                <g id="Group_140" data-name="Group 140">
                  <path id="Path_125" data-name="Path 125" class="cls-13" d="M125.842,207.933l-4.848-2.819c.164-.24.335-.483.5-.719l4.849,2.816C126.177,207.449,126.007,207.692,125.842,207.933Z"/>
                </g>
                <g id="Group_141" data-name="Group 141">
                  <path id="Path_126" data-name="Path 126" class="cls-13" d="M118.944,216.642l-4.848-2.817,3.677-2.37,4.848,2.818Z"/>
                </g>
                <g id="Group_142" data-name="Group 142">
                  <path id="Path_127" data-name="Path 127" class="cls-12" d="M118.373,219.088l-4.848-2.817q.227-1.223.571-2.447l4.848,2.818C118.714,217.456,118.526,218.274,118.373,219.088Z"/>
                </g>
                <g id="Group_143" data-name="Group 143">
                  <path id="Path_128" data-name="Path 128" class="cls-13" d="M127.826,201.246l-4.849-2.818,2.605,1.453,4.848,2.817Z"/>
                </g>
                <g id="Group_144" data-name="Group 144">
                  <path id="Path_129" data-name="Path 129" class="cls-12" d="M126.158,203.066l-4.848-2.816c.537-.634,1.1-1.238,1.667-1.822l4.849,2.818C127.255,201.827,126.7,202.435,126.158,203.066Z"/>
                </g>
                <g id="Group_145" data-name="Group 145">
                  <path id="Path_130" data-name="Path 130" class="cls-13" d="M126.347,207.211l-4.85-2.816-.188-4.145,4.849,2.816Z"/>
                </g>
                <g id="Group_146" data-name="Group 146">
                  <path id="Path_131" data-name="Path 131" class="cls-13" d="M122.873,213.616l-4.848-2.819-1.692-2.864,4.85,2.817Z"/>
                </g>
                <g id="Group_147" data-name="Group 147">
                  <path id="Path_132" data-name="Path 132" class="cls-13" d="M122.4,208.423l-4.849-2.819,3.442-.489,4.848,2.818Z"/>
                </g>
                <g id="Group_148" data-name="Group 148">
                  <path id="Path_133" data-name="Path 133" class="cls-12" d="M121.182,210.75l-4.85-2.817c.383-.785.783-1.565,1.22-2.33l4.849,2.82C121.964,209.188,121.564,209.966,121.182,210.75Z"/>
                </g>
              </g>
              <path id="Path_134" data-name="Path 134" class="cls-14" d="M139.381,204.2l-4.849-2.819c1.524.887,2.466,2.768,2.474,5.443.015,5.381-3.766,11.938-8.454,14.645-2.355,1.36-4.489,1.484-6.03.589l4.85,2.818c1.541.9,3.674.77,6.028-.591,4.689-2.707,8.469-9.262,8.454-14.644C141.847,206.969,140.9,205.087,139.381,204.2Z"/>
              <path id="Path_135" data-name="Path 135" class="cls-15" d="M133.34,202.636c-5.722,3.3-10.345,11.314-10.328,17.887s4.674,9.225,10.395,5.923,10.35-11.315,10.331-17.888S139.065,199.331,133.34,202.636Zm.06,21.652c-4.682,2.7-8.489.528-8.5-4.852s3.766-11.937,8.449-14.641,8.495-.531,8.509,4.849S138.089,221.581,133.4,224.288Z"/>
              <path id="Path_136" data-name="Path 136" class="cls-12" d="M148.562,209.083a22.441,22.441,0,0,0,.219-2.407l-3.321-.049c-.011-.138-.006-.285-.018-.417l2.913-4.432a11.653,11.653,0,0,0-.583-1.781l-3.679,1.877c-.077-.125-.165-.25-.248-.368l1.663-4.8a7.949,7.949,0,0,0-1.229-.914l-3.432,3.48c-.165-.051-.336-.1-.5-.141l.157-4.344a10.512,10.512,0,0,0-1.666.1l-2.593,4.455c-.222.063-.445.137-.67.216l-1.335-3.141c-.307.154-.605.291-.917.473s-.6.38-.9.579l-1.318,4.674c-.226.179-.451.365-.67.555l-2.6-1.452c-.571.581-1.13,1.189-1.668,1.82l.189,4.145c-.17.238-.34.481-.5.722l-3.441.49c-.437.765-.837,1.543-1.219,2.327l1.691,2.866c-.089.214-.175.441-.252.656l-3.677,2.37c-.23.814-.418,1.632-.571,2.446l2.929,1.058c-.011.146,0,.287-.015.44l-3.311,3.877a18.523,18.523,0,0,0,.231,2.144l3.7-.975a1.117,1.117,0,0,0,.078.195l-2.357,4.755a7.89,7.89,0,0,0,1.044,1.432l3.889-2.846L123.6,234a8.48,8.48,0,0,0,1.722.4l3.265-4.293.634,4.014a15.154,15.154,0,0,0,2.087-.707l2.1-4.923,2.128,2.48a26.668,26.668,0,0,0,2.081-1.7l.623-4.731,3.269.513c.6-.769,1.172-1.557,1.714-2.38l-.988-3.706.053-.1,3.84-1.547c.388-.87.727-1.747,1.037-2.634l-2.381-2.02c.027-.1.055-.187.077-.283Zm-15.155,17.363c-5.721,3.3-10.376.651-10.395-5.923s4.606-14.583,10.328-17.887,10.38-.653,10.4,5.922S139.133,223.14,133.407,226.446Z"/>
            </g>
            <g id="Group_187" data-name="Group 187">
              <g id="Group_186" data-name="Group 186">
                <g id="Group_151" data-name="Group 151">
                  <path id="Path_137" data-name="Path 137" class="cls-10" d="M126.357,198.63l-4.847-2.817a26.576,26.576,0,0,0,2.079-1.7l4.847,2.819A26.225,26.225,0,0,1,126.357,198.63Z"/>
                </g>
                <g id="Group_152" data-name="Group 152">
                  <path id="Path_138" data-name="Path 138" class="cls-10" d="M128.436,196.931l-4.848-2.818.612-4.732,4.849,2.818Z"/>
                </g>
                <g id="Group_153" data-name="Group 153">
                  <path id="Path_139" data-name="Path 139" class="cls-10" d="M129.05,192.2,124.2,189.38l3.28.514,4.848,2.818Z"/>
                </g>
                <g id="Group_154" data-name="Group 154">
                  <path id="Path_140" data-name="Path 140" class="cls-10" d="M126.357,198.63l-4.847-2.817-2.131-2.479,4.85,2.816Z"/>
                </g>
                <g id="Group_155" data-name="Group 155">
                  <path id="Path_141" data-name="Path 141" class="cls-10" d="M126.357,198.63l-4.847-2.817-2.131-2.479,4.85,2.816Z"/>
                </g>
                <g id="Group_156" data-name="Group 156">
                  <path id="Path_142" data-name="Path 142" class="cls-10" d="M136.275,174.289l-4.847-2.818,3.32.047,4.849,2.818Z"/>
                </g>
                <g id="Group_157" data-name="Group 157">
                  <path id="Path_143" data-name="Path 143" class="cls-10" d="M124.229,196.15l-4.85-2.816,0-2.045,4.847,2.818Z"/>
                </g>
                <g id="Group_158" data-name="Group 158">
                  <path id="Path_144" data-name="Path 144" class="cls-10" d="M120.037,201.781l-4.848-2.819-.632-4.012,4.848,2.818Z"/>
                </g>
                <g id="Group_159" data-name="Group 159">
                  <path id="Path_145" data-name="Path 145" class="cls-10" d="M134.909,169.536l-4.849-2.817,3.679-1.878,4.848,2.817Z"/>
                </g>
                <g id="Group_160" data-name="Group 160">
                  <path id="Path_146" data-name="Path 146" class="cls-10" d="M114.417,201.664l-4.848-2.817.964-4.836,4.849,2.816Z"/>
                </g>
                <g id="Group_161" data-name="Group 161">
                  <path id="Path_147" data-name="Path 147" class="cls-10" d="M131.662,166.931l-4.848-2.817,3.433-3.479,4.849,2.817Z"/>
                </g>
                <g id="Group_162" data-name="Group 162">
                  <path id="Path_148" data-name="Path 148" class="cls-10" d="M131.161,166.79l-4.848-2.817c.165.044.335.091.5.14l4.848,2.818C131.5,166.88,131.328,166.833,131.161,166.79Z"/>
                </g>
                <g id="Group_163" data-name="Group 163">
                  <path id="Path_149" data-name="Path 149" class="cls-11" d="M111.491,199.676l-4.848-2.818a7.912,7.912,0,0,1-1.044-1.433l4.849,2.817A7.986,7.986,0,0,0,111.491,199.676Z"/>
                </g>
                <g id="Group_164" data-name="Group 164">
                  <path id="Path_150" data-name="Path 150" class="cls-10" d="M110.448,198.242l-4.849-2.817,2.357-4.753,4.848,2.818Z"/>
                </g>
                <g id="Group_165" data-name="Group 165">
                  <path id="Path_151" data-name="Path 151" class="cls-10" d="M112.8,193.489l-4.848-2.818a1.228,1.228,0,0,1-.078-.194l4.848,2.817A1.392,1.392,0,0,0,112.8,193.489Z"/>
                </g>
                <g id="Group_166" data-name="Group 166">
                  <path id="Path_152" data-name="Path 152" class="cls-11" d="M129.654,162.549l-4.848-2.819a10.618,10.618,0,0,1,1.666-.1l4.848,2.818A10.5,10.5,0,0,0,129.654,162.549Z"/>
                </g>
                <g id="Group_167" data-name="Group 167">
                  <rect id="Rectangle_3" data-name="Rectangle 3" class="cls-10" width="5.155" height="5.608" transform="translate(122.214 164.188) rotate(-59.854)"/>
                </g>
                <g id="Group_168" data-name="Group 168">
                  <path id="Path_153" data-name="Path 153" class="cls-10" d="M126.39,167.219l-4.849-2.816c.226-.081.451-.153.67-.217L127.06,167C126.84,167.067,126.615,167.14,126.39,167.219Z"/>
                </g>
                <g id="Group_169" data-name="Group 169">
                  <path id="Path_154" data-name="Path 154" class="cls-10" d="M124.161,172.456l-4.849-2.818-.005-2.157,4.848,2.816Z"/>
                </g>
                <g id="Group_170" data-name="Group 170">
                  <path id="Path_155" data-name="Path 155" class="cls-10" d="M112.1,188.245l-4.848-2.816c.011-.152,0-.295.015-.439l4.849,2.818C112.106,187.952,112.112,188.093,112.1,188.245Z"/>
                </g>
                <g id="Group_171" data-name="Group 171">
                  <path id="Path_156" data-name="Path 156" class="cls-10" d="M108.792,192.123l-4.849-2.818,3.311-3.876,4.847,2.816Z"/>
                </g>
                <g id="Group_172" data-name="Group 172">
                  <path id="Path_157" data-name="Path 157" class="cls-11" d="M109.023,194.27l-4.848-2.817a18.613,18.613,0,0,1-.232-2.148l4.849,2.818A18.382,18.382,0,0,0,109.023,194.27Z"/>
                </g>
                <g id="Group_173" data-name="Group 173">
                  <path id="Path_158" data-name="Path 158" class="cls-10" d="M121.246,170.36l-4.849-2.818q.331-.285.67-.556l4.848,2.817C121.69,169.983,121.465,170.17,121.246,170.36Z"/>
                </g>
                <g id="Group_174" data-name="Group 174">
                  <path id="Path_159" data-name="Path 159" class="cls-10" d="M124.155,170.3l-4.848-2.816-.016-5.747,4.848,2.816Z"/>
                </g>
                <path id="Path_160" data-name="Path 160" class="cls-11" d="M120.207,161.261c-.307.152-.605.292-.916.473s-.605.38-.907.579l4.849,2.818c.3-.2.6-.406.906-.581s.609-.319.916-.472Z"/>
                <g id="Group_175" data-name="Group 175">
                  <path id="Path_161" data-name="Path 161" class="cls-10" d="M121.915,169.8l-4.848-2.817,1.317-4.673,4.849,2.818Z"/>
                </g>
                <g id="Group_176" data-name="Group 176">
                  <path id="Path_162" data-name="Path 162" class="cls-10" d="M113.437,181.933l-4.848-2.818c.076-.214.163-.442.25-.657l4.849,2.818C113.6,181.492,113.513,181.718,113.437,181.933Z"/>
                </g>
                <g id="Group_177" data-name="Group 177">
                  <path id="Path_163" data-name="Path 163" class="cls-10" d="M116.658,175.593l-4.848-2.817c.164-.24.334-.484.5-.721l4.849,2.818C116.992,175.109,116.822,175.353,116.658,175.593Z"/>
                </g>
                <g id="Group_178" data-name="Group 178">
                  <path id="Path_164" data-name="Path 164" class="cls-10" d="M109.759,184.3l-4.848-2.818,3.678-2.37,4.848,2.818Z"/>
                </g>
                <g id="Group_179" data-name="Group 179">
                  <path id="Path_165" data-name="Path 165" class="cls-11" d="M109.188,186.749l-4.847-2.817c.151-.815.341-1.633.57-2.447l4.848,2.818C109.531,185.117,109.341,185.935,109.188,186.749Z"/>
                </g>
                <g id="Group_180" data-name="Group 180">
                  <path id="Path_166" data-name="Path 166" class="cls-10" d="M118.64,168.907l-4.848-2.818,2.605,1.453,4.849,2.818Z"/>
                </g>
                <g id="Group_181" data-name="Group 181">
                  <path id="Path_167" data-name="Path 167" class="cls-11" d="M116.975,170.729l-4.85-2.818c.538-.633,1.1-1.24,1.667-1.822l4.848,2.818C118.071,169.489,117.511,170.1,116.975,170.729Z"/>
                </g>
                <g id="Group_182" data-name="Group 182">
                  <path id="Path_168" data-name="Path 168" class="cls-10" d="M117.162,174.873l-4.849-2.817-.188-4.144,4.85,2.817Z"/>
                </g>
                <g id="Group_183" data-name="Group 183">
                  <path id="Path_169" data-name="Path 169" class="cls-10" d="M113.688,181.276l-4.849-2.818-1.691-2.865L112,178.411Z"/>
                </g>
                <g id="Group_184" data-name="Group 184">
                  <path id="Path_170" data-name="Path 170" class="cls-10" d="M113.217,176.083l-4.849-2.817,3.442-.489,4.848,2.817Z"/>
                </g>
                <g id="Group_185" data-name="Group 185">
                  <path id="Path_171" data-name="Path 171" class="cls-11" d="M112,178.411l-4.849-2.818c.383-.783.783-1.563,1.22-2.328l4.849,2.818C112.779,176.848,112.38,177.627,112,178.411Z"/>
                </g>
              </g>
              <path id="Path_172" data-name="Path 172" class="cls-10" d="M130.2,171.864l-4.849-2.818c1.523.886,2.467,2.769,2.475,5.442.014,5.381-3.767,11.937-8.455,14.643-2.355,1.361-4.489,1.487-6.03.592l4.848,2.816c1.542.9,3.675.77,6.031-.59,4.687-2.707,8.468-9.261,8.453-14.644C132.664,174.631,131.719,172.748,130.2,171.864Z"/>
              <path id="Path_173" data-name="Path 173" class="cls-12" d="M124.155,170.3c-5.721,3.3-10.345,11.312-10.326,17.886s4.672,9.225,10.393,5.923,10.351-11.315,10.332-17.889S129.881,166.993,124.155,170.3Zm.062,21.651c-4.685,2.705-8.49.528-8.506-4.853s3.767-11.936,8.45-14.64,8.5-.531,8.509,4.849S128.9,189.242,124.217,191.949Z"/>
              <path id="Path_174" data-name="Path 174" class="cls-11" d="M139.379,176.744a22.7,22.7,0,0,0,.218-2.407l-3.322-.048c-.011-.138-.006-.287-.018-.419l2.913-4.43a11.509,11.509,0,0,0-.583-1.781l-3.678,1.877c-.078-.125-.166-.251-.249-.369l1.664-4.8a7.994,7.994,0,0,0-1.228-.915l-3.434,3.48c-.164-.051-.334-.1-.5-.141l.159-4.344a10.5,10.5,0,0,0-1.666.1L127.06,167c-.22.064-.445.137-.67.216l-1.335-3.141c-.307.153-.6.293-.916.472s-.6.382-.906.581l-1.318,4.672c-.225.18-.45.367-.669.557l-2.606-1.453c-.569.582-1.129,1.189-1.665,1.822l.187,4.144c-.17.236-.34.48-.5.72l-3.441.49c-.438.765-.837,1.544-1.22,2.328l1.691,2.865c-.087.216-.175.442-.251.657l-3.678,2.37c-.228.814-.418,1.632-.571,2.446l2.93,1.059c-.012.144-.006.285-.016.437l-3.31,3.878a18.382,18.382,0,0,0,.231,2.147l3.7-.976a1.392,1.392,0,0,0,.078.195l-2.356,4.753a7.986,7.986,0,0,0,1.043,1.434l3.891-2.849-.965,4.837a8.383,8.383,0,0,0,1.722.4l3.265-4.292.633,4.013a15.112,15.112,0,0,0,2.087-.707l2.1-4.924,2.129,2.48a26.225,26.225,0,0,0,2.079-1.7l.624-4.731,3.27.512c.6-.768,1.172-1.555,1.713-2.379l-.988-3.707.054-.1,3.841-1.546c.387-.871.725-1.748,1.036-2.635l-2.382-2.019c.028-.1.056-.189.077-.284Zm-15.157,17.363c-5.721,3.3-10.374.651-10.393-5.923s4.6-14.583,10.326-17.886,10.38-.654,10.4,5.92S129.948,190.8,124.222,194.107Z"/>
            </g>
          </g>
          <g id="Group_189" data-name="Group 189">
            <path id="Path_175" data-name="Path 175" class="cls-2" d="M83.315,273.591l-9.742-5.666c-2.4-1.389-3.884-4.347-3.895-8.532l9.74,5.663C79.429,269.241,80.917,272.194,83.315,273.591Z"/>
          </g>
          <g id="Group_190" data-name="Group 190">
            <path id="Path_176" data-name="Path 176" class="cls-2" d="M79.418,265.056l-9.74-5.663-.385-135.568,9.741,5.662Z"/>
          </g>
          <g id="Group_191" data-name="Group 191">
            <path id="Path_177" data-name="Path 177" class="cls-2" d="M79.033,129.487l-9.741-5.662c-.022-8.488,5.956-18.844,13.37-23.129l9.739,5.666C84.989,110.64,79.008,121,79.033,129.487Z"/>
          </g>
          <path id="Path_178" data-name="Path 178" class="cls-3" d="M232,14.484,82.662,100.7a27.417,27.417,0,0,0-9.51,10.059l9.737,5.663A27.428,27.428,0,0,1,92.4,106.362L241.735,20.143Z"/>
        </g>
      </g>
      <g id="Group_194" data-name="Group 194">
        <path id="Path_179" data-name="Path 179" class="cls-4" d="M241.735,20.143c7.385-4.261,13.435-.845,13.459,7.634l.383,135.569c.025,8.447-5.985,18.824-13.369,23.09L92.874,272.65c-7.411,4.279-13.433.85-13.456-7.594l-.385-135.569C79.008,121,84.989,110.64,92.4,106.362Zm2.409,152.414-.4-140.712L90.41,120.376l.4,140.711,153.337-88.53Z"/>
      </g>
    </g>
    <g id="Group_199" data-name="Group 199">
      <g id="Group_198" data-name="Group 198">
        <g id="Group_196" data-name="Group 196">
          <path id="Path_180" data-name="Path 180" class="cls-16" d="M179.428,217.149a2.285,2.285,0,0,0,1.046-1.8c0-.672-.478-.93-1.05-.6l-5.776,3.335A2.3,2.3,0,0,0,172.6,219.9c0,.656.479.913,1.051.582l5.775-3.335Z"/>
        </g>
        <g id="Group_197" data-name="Group 197">
          <path id="Path_181" data-name="Path 181" class="cls-17" d="M179.424,214.755c.572-.332,1.049-.074,1.05.6a2.285,2.285,0,0,1-1.046,1.8l-5.775,3.335c-.572.331-1.051.074-1.051-.582a2.3,2.3,0,0,1,1.046-1.812Z"/>
        </g>
      </g>
    </g>
    <g id="Group_217" data-name="Group 217">
      <path id="Path_211" data-name="Path 211" class="cls-4" d="M160.616,247.849c6.332,3.656,6.365,9.579.075,13.234s-16.523,3.66-22.856.005-6.364-9.587-.073-13.242S154.284,244.193,160.616,247.849Z"/>
    </g>
    <g id="Group_219" data-name="Group 219">
      <g id="Group_218" data-name="Group 218">
        <path id="Path_212" data-name="Path 212" class="cls-18" d="M226.673,111.688l-9.463-5.5-.028-22.716,9.463,5.5Z"/>
      </g>
      <path id="Path_213" data-name="Path 213" class="cls-18" d="M217.21,106.191l-16.638,9.329v5.136l4.968,2.886,21.133-11.853Z"/>
    </g>
    <g id="Group_241" data-name="Group 241">
      <g id="Group_222" data-name="Group 222">
        <g id="Group_220" data-name="Group 220">
          <path id="Path_214" data-name="Path 214" class="cls-18" d="M225.86,172.148l-8.8-5.116-.127-44.574,8.8,5.116Z"/>
        </g>
        <g id="Group_221" data-name="Group 221">
          <path id="Path_215" data-name="Path 215" class="cls-18" d="M177.931,199.445l-8.8-5.12,47.929-27.294,8.8,5.116Z"/>
        </g>
      </g>
      <g id="Group_234" data-name="Group 234">
        <g id="Group_233" data-name="Group 233">
          <g id="Group_227" data-name="Group 227">
            <g id="Group_226" data-name="Group 226">
              <g id="Group_223" data-name="Group 223">
                <path id="Path_216" data-name="Path 216" class="cls-19" d="M193.09,180.421l8.973,5.213-.147-39.79-8.826-5.129Z"/>
              </g>
              <g id="Group_224" data-name="Group 224">
                <path id="Path_217" data-name="Path 217" class="cls-20" d="M201.916,145.844l-10.658-6.194,23.8-13.735,10.657,6.191Z"/>
              </g>
              <g id="Group_225" data-name="Group 225">
                <path id="Path_218" data-name="Path 218" class="cls-20" d="M225.712,132.106l.148,39.793-23.8,13.735-.147-39.79Z"/>
              </g>
            </g>
          </g>
          <g id="Group_232" data-name="Group 232">
            <g id="Group_231" data-name="Group 231">
              <g id="Group_228" data-name="Group 228">
                <path id="Path_219" data-name="Path 219" class="cls-21" d="M193.09,146.91l8.915,5.18-.031-10.891-8.883-5.162Z"/>
              </g>
              <g id="Group_229" data-name="Group 229">
                <path id="Path_220" data-name="Path 220" class="cls-22" d="M201.974,141.2l-10.656-6.192,23.8-13.74,10.657,6.192Z"/>
              </g>
              <g id="Group_230" data-name="Group 230">
                <path id="Path_221" data-name="Path 221" class="cls-22" d="M225.77,127.459l.03,10.9L202,152.089l-.031-10.891Z"/>
              </g>
            </g>
          </g>
        </g>
      </g>
      <g id="Group_240" data-name="Group 240">
        <g id="Group_235" data-name="Group 235">
          <path id="Path_222" data-name="Path 222" class="cls-18" d="M169.128,204.561l-8.8-5.115L160.2,154.87l8.8,5.116Z"/>
        </g>
        <g id="Group_236" data-name="Group 236">
          <path id="Path_223" data-name="Path 223" class="cls-18" d="M160.324,199.445l-56.432,32.581v4.191l5.184,3.016,60.053-34.673Z"/>
        </g>
        <path id="Path_224" data-name="Path 224" class="cls-8" d="M232.787,38.674,100.594,115l.388,136.871,132.194-76.321Zm-12.8,10.969c1.1-.637,1.979-.135,1.982,1.109A4.3,4.3,0,0,1,220,54.167c-1.085.628-1.965.126-1.968-1.139A4.3,4.3,0,0,1,219.991,49.643Zm-6.382,3.683c1.085-.627,1.98-.134,1.983,1.11a4.344,4.344,0,0,1-1.969,3.416c-1.086.627-1.965.124-1.969-1.143A4.3,4.3,0,0,1,213.609,53.326Zm-51.331,72.828.026,22.366-21.133,12.2-.028-22.372Zm-53.2,113.079-.126-44.577L169,159.986l.128,44.574Zm64.2-119.668,21.135-12.2.027,22.367-21.133,12.2Zm4.652,79.88-.127-44.577,47.929-27.295.127,44.575Zm27.511-76.3-.027-22.369,21.134-12.2.027,22.369ZM226.4,50.474c-1.085.627-1.982.134-1.985-1.129a4.346,4.346,0,0,1,1.971-3.4c1.086-.625,1.982-.132,1.985,1.112A4.339,4.339,0,0,1,226.4,50.474Z"/>
        <g id="Group_237" data-name="Group 237">
          <path id="Path_225" data-name="Path 225" class="cls-23" d="M226.384,45.949c1.086-.625,1.982-.132,1.985,1.112a4.339,4.339,0,0,1-1.971,3.413c-1.085.627-1.982.134-1.985-1.129A4.346,4.346,0,0,1,226.384,45.949Z"/>
        </g>
        <g id="Group_238" data-name="Group 238">
          <path id="Path_226" data-name="Path 226" class="cls-23" d="M219.991,49.643c1.1-.637,1.979-.135,1.982,1.109A4.3,4.3,0,0,1,220,54.167c-1.085.628-1.965.126-1.968-1.139A4.3,4.3,0,0,1,219.991,49.643Z"/>
        </g>
        <g id="Group_239" data-name="Group 239">
          <path id="Path_227" data-name="Path 227" class="cls-23" d="M213.609,53.326c1.085-.627,1.98-.134,1.983,1.11a4.344,4.344,0,0,1-1.969,3.416c-1.086.627-1.965.124-1.969-1.14A4.3,4.3,0,0,1,213.609,53.326Z"/>
        </g>
      </g>
    </g>
    <g id="Group_250" data-name="Group 250">
      <g id="Group_249" data-name="Group 249">
        <g id="Group_242" data-name="Group 242">
          <path id="Path_228" data-name="Path 228" class="cls-23" d="M206.925,93.8l-8.8-5.117,26.908-15.535,8.8,5.116Z"/>
        </g>
        <g id="Group_243" data-name="Group 243">
          <path id="Path_229" data-name="Path 229" class="cls-8" d="M206.925,93.8l-8.8-5.117-.009-3.114,8.8,5.115Z"/>
        </g>
        <g id="Group_244" data-name="Group 244">
          <path id="Path_230" data-name="Path 230" class="cls-24" d="M112.694,143.653l-8.8-5.116,124-71.587,8.8,5.115Z"/>
        </g>
        <g id="Group_245" data-name="Group 245">
          <path id="Path_231" data-name="Path 231" class="cls-23" d="M232.587,74.434,229.9,75.983l3.931,2.283-.008-3.115Z"/>
        </g>
        <g id="Group_246" data-name="Group 246">
          <path id="Path_232" data-name="Path 232" class="cls-8" d="M233.824,75.151l.008,3.115L206.925,93.8l-.01-3.116Z"/>
        </g>
        <g id="Group_247" data-name="Group 247">
          <path id="Path_233" data-name="Path 233" class="cls-23" d="M112.712,149.425l-8.8-5.115-.017-5.773,8.8,5.116Z"/>
        </g>
        <g id="Group_248" data-name="Group 248">
          <path id="Path_234" data-name="Path 234" class="cls-23" d="M112.694,143.653,236.689,72.065l.017,5.772L112.712,149.425ZM233.832,78.267l-.008-3.116L206.915,90.686l.01,3.116,26.907-15.535Z"/>
        </g>
      </g>
    </g>
    <g id="Group_253" data-name="Group 253">
      <g id="Group_252" data-name="Group 252">
        <g id="Group_251" data-name="Group 251">
          <path id="Path_235" data-name="Path 235" class="cls-22" d="M165.888,88.806l.018,8.288-62,35.793-.016-8.287Z"/>
        </g>
      </g>
    </g>
    <g id="Group_271" data-name="Group 271">
      <g id="Group_259" data-name="Group 259">
        <g id="Group_258" data-name="Group 258">
          <g id="Group_256" data-name="Group 256">
            <g id="Group_254" data-name="Group 254">
              <path id="Path_236" data-name="Path 236" class="cls-25" d="M179.1,145.368l-5.816-3.491-.027-22.372L179.07,123Z"/>
            </g>
            <g id="Group_255" data-name="Group 255">
              <path id="Path_237" data-name="Path 237" class="cls-24" d="M179.07,123l-5.815-3.493,21.133-12.2,5.817,3.5Z"/>
            </g>
          </g>
          <g id="Group_257" data-name="Group 257">
            <path id="Path_238" data-name="Path 238" class="cls-23" d="M200.205,110.8l.027,22.366-21.133,12.2L179.07,123Z"/>
          </g>
        </g>
      </g>
      <g id="Group_265" data-name="Group 265">
        <g id="Group_264" data-name="Group 264">
          <g id="Group_262" data-name="Group 262">
            <g id="Group_260" data-name="Group 260">
              <path id="Path_239" data-name="Path 239" class="cls-25" d="M144.015,162.553l-2.9-1.745-.027-22.371,2.893,1.747Z"/>
            </g>
            <g id="Group_261" data-name="Group 261">
              <path id="Path_240" data-name="Path 240" class="cls-24" d="M143.985,140.184l-2.893-1.747,21.133-12.2,2.895,1.749Z"/>
            </g>
          </g>
          <g id="Group_263" data-name="Group 263">
            <path id="Path_241" data-name="Path 241" class="cls-23" d="M165.12,127.988l.028,22.367-21.133,12.2-.03-22.369Z"/>
          </g>
        </g>
      </g>
      <g id="Group_270" data-name="Group 270">
        <g id="Group_269" data-name="Group 269">
          <g id="Group_266" data-name="Group 266">
            <path id="Path_242" data-name="Path 242" class="cls-25" d="M217.083,130.389l-9.464-5.5-.027-22.369,9.463,5.5Z"/>
          </g>
          <g id="Group_267" data-name="Group 267">
            <path id="Path_243" data-name="Path 243" class="cls-24" d="M217.055,108.02l-9.463-5.5,21.132-12.2,9.466,5.5Z"/>
          </g>
          <g id="Group_268" data-name="Group 268">
            <path id="Path_244" data-name="Path 244" class="cls-23" d="M238.189,95.819l.028,22.369-21.135,12.2-.028-22.369Z"/>
          </g>
        </g>
      </g>
    </g>
    <path id="Path_245" data-name="Path 245" class="cls-23" d="M130.141,144.939l.028,22.369-21.133,12.2-.029-22.369Z"/>
    <g id="Group_292" data-name="Group 292">
      <g id="Group_290" data-name="Group 290">
        <g id="Group_288" data-name="Group 288">
          <g id="Group_274" data-name="Group 274">
            <g id="Group_272" data-name="Group 272">
              <path id="Path_246" data-name="Path 246" d="M154.578,261.681c-.829,1.407-2.807,1.529-3.689,1.437-2.163-.221-3.214-1.22-5.8-2.283-2.516-1.027-2.674-2.015-2.552-2.37,1.286-3.622,3.561-1.622,6.75-.591.944.31,4.345-.318,4.345-.318S154.9,261.146,154.578,261.681Z"/>
            </g>
            <g id="Group_273" data-name="Group 273">
              <path id="Path_247" data-name="Path 247" class="cls-26" d="M154.578,261.426c-.829,1.4-2.807,1.53-3.689,1.44-2.163-.222-3.214-1.227-5.8-2.288-2.516-1.03-2.674-2.019-2.552-2.367,1.286-3.621,3.561-1.624,6.75-.591.944.307,4.345-.318,4.345-.318S154.9,260.886,154.578,261.426Z"/>
            </g>
          </g>
          <g id="Group_277" data-name="Group 277">
            <g id="Group_275" data-name="Group 275">
              <path id="Path_248" data-name="Path 248" d="M162.085,257.382c-.828,1.4-2.8,1.524-3.682,1.438-2.162-.227-3.215-1.226-5.8-2.29-2.513-1.027-2.679-2.015-2.552-2.37,1.292-3.616,3.562-1.621,6.75-.589.943.306,4.343-.314,4.343-.314S162.406,256.838,162.085,257.382Z"/>
            </g>
            <g id="Group_276" data-name="Group 276">
              <path id="Path_249" data-name="Path 249" class="cls-26" d="M162.085,257.123c-.828,1.406-2.8,1.529-3.682,1.438-2.162-.221-3.215-1.225-5.8-2.287-2.513-1.029-2.679-2.019-2.552-2.365,1.292-3.622,3.562-1.621,6.75-.587.943.3,4.343-.327,4.343-.327S162.406,256.584,162.085,257.123Z"/>
            </g>
          </g>
          <g id="Group_284" data-name="Group 284">
            <g id="Group_280" data-name="Group 280">
              <g id="Group_279" data-name="Group 279">
                <g id="Group_278" data-name="Group 278">
                  <path id="Path_250" data-name="Path 250" class="cls-27" d="M154.688,220.014c.555,10.973.56,24.652.037,35.577,0-.008.523,2.151,3.89,2.306.644-11.781.66-26.251.07-38.023C157.352,219.911,156.017,219.957,154.688,220.014Z"/>
                  <path id="Path_251" data-name="Path 251" class="cls-28" d="M158.685,219.874c.59,11.772.574,26.242-.07,38.023a4.213,4.213,0,0,0,4.156-2.052c.516-11.057.51-24.958-.036-36.056C161.384,219.807,160.036,219.83,158.685,219.874Z"/>
                </g>
              </g>
            </g>
            <g id="Group_283" data-name="Group 283">
              <g id="Group_282" data-name="Group 282">
                <g id="Group_281" data-name="Group 281">
                  <path id="Path_252" data-name="Path 252" class="cls-27" d="M147.157,224.29c.559,10.974.564,24.654.039,35.573,0-.007.525,2.154,3.89,2.309.642-11.779.657-26.255.07-38.025Q149.152,224.2,147.157,224.29Z"/>
                  <path id="Path_253" data-name="Path 253" class="cls-28" d="M151.156,224.147c.587,11.77.572,26.246-.07,38.025a4.22,4.22,0,0,0,4.157-2.056c.514-11.056.509-24.953-.034-36.056C153.855,224.08,152.5,224.1,151.156,224.147Z"/>
                  <path id="Path_254" data-name="Path 254" class="cls-27" d="M155.39,227.645c-.116.765.645,1.332.535,2.1a36.579,36.579,0,0,1-5.515,1.109l.93-3.848Z"/>
                  <path id="Path_255" data-name="Path 255" class="cls-27" d="M158.306,222.577c1.442.225,3.218-.329,4.657-.1-.132.841.1,2.013-.015,2.859a20.3,20.3,0,0,1-3.5,2.693,18.55,18.55,0,0,1-1.957,1C157.7,226.873,157.973,224.719,158.306,222.577Z"/>
                </g>
              </g>
            </g>
          </g>
          <g id="Group_287" data-name="Group 287">
            <g id="Group_286" data-name="Group 286">
              <path id="Path_256" data-name="Path 256" class="cls-29" d="M165.67,210.624a2.275,2.275,0,0,1-2.319,1.587,6.45,6.45,0,0,1-2.28-1.033l2.083-7.1h2.529Z"/>
              <g id="Group_285" data-name="Group 285">
                <path id="Path_257" data-name="Path 257" class="cls-29" d="M150.41,230.353s-3.2,0-4.141-2.411V209.661l4.141,2.4Z"/>
              </g>
              <path id="Path_258" data-name="Path 258" class="cls-30" d="M164.456,195.855a3.609,3.609,0,0,0-5.116-1.193c-1.106.585-3.5.779-5.736,2.159-2.1,1.292-9.007,5.032-9.98,10.64l6.786,4.6v18.288a23.874,23.874,0,0,0,9.02-2.851c3.867-2.327,4.638-5.032,4.638-5.032l-1.05-6.879,1.055-10.7.373,7.1c.523.14,1.626-1.543,1.626-1.543S165.611,197.481,164.456,195.855Z"/>
              <path id="Path_259" data-name="Path 259" class="cls-29" d="M149.79,199.269l1.136-1.754s5.528,2.485,7.505.352l.036-1.142s.9.754.958,1.292c-.018-.148-.358,2.337-4.5,2.166C152.828,200.1,152.25,198.762,149.79,199.269Z"/>
              <path id="Path_260" data-name="Path 260" class="cls-12" d="M151.35,196.675l-.919,1.809s4.812.966,7.552.27c1.064-.272,1.377-2.2-.95-3.225-1.84-.8-5.055,1.584-5.055,1.584Z"/>
              <path id="Path_261" data-name="Path 261" class="cls-31" d="M151.675,194.069a9.661,9.661,0,0,1,.3,3.044,11.514,11.514,0,0,0,5.011.4c.813-.09.639-1.662.639-1.662Z"/>
              <path id="Path_262" data-name="Path 262" class="cls-31" d="M156.555,182.133c-2.6-2.141-4.077-1.771-7.547.373a4.79,4.79,0,0,0-2.525,4.1c-.223,2.328.692,2.217.617,3.664-.318,6.164,1.555,8.145,4.925,5.973,1.649-1.061,5.6-.383,5.6-.383a7.109,7.109,0,0,1,1.153-3.664A8.422,8.422,0,0,0,156.555,182.133Z"/>
            </g>
          </g>
        </g>
        <g id="Group_289" data-name="Group 289">
          <path id="Path_263" data-name="Path 263" class="cls-32" d="M149.4,192.3s.692-1.085,1.212-1.073.526,1.195-.349,1.929c0,0,1.136-1.381.381-1.806-.112-.062-.477-.015-1.131.9,0,0,.721-.141.484.484C150,192.732,150.081,192.191,149.4,192.3Z"/>
        </g>
        <path id="Path_264" data-name="Path 264" class="cls-26" d="M145.123,186.2s1.759-7.7,9.524-5.919c0,0,8.246.751,6.052,8.571l-1.918,6.041s-2.136,2.071-6.756,1.343l-1.448-2.706s2.279-2.11.328-2.859c-1.589-.6-1.771,1.631-1.771,1.631l-1-.292L148,190.6Z"/>
        <path id="Path_265" data-name="Path 265" class="cls-22" d="M154.512,178.481c4.571.4,7.638,2.664,7.638,9.62,0,0-2.547,3.01-11.781,1.939A9.379,9.379,0,0,1,145,187.371S145.234,177.658,154.512,178.481Z"/>
      </g>
      <path id="Path_266" data-name="Path 266" class="cls-31" d="M131.056,213.005a4.419,4.419,0,0,0-3.914,1.685c-.716,1.087,1.628,4.848,5.842,3.512,1.211-.392,1.635-1.193,1.615-1.711C134.558,215.226,131.99,213.145,131.056,213.005Z"/>
      <g id="Group_291" data-name="Group 291">
        <path id="Path_267" data-name="Path 267" class="cls-30" d="M150.41,212.065s-7.138,10.417-10.075,10.317-7-1.6-8.42-3.164c0,0-.869-4.106,3.173-4.719.2-.025,3.722.836,3.722.836l5.484-9.969S150.41,204.013,150.41,212.065Z"/>
      </g>
    </g>
    <g id="Group_376" data-name="Group 376">
      <g id="Group_375" data-name="Group 375">
        <g id="Group_366" data-name="Group 366">
          <g id="Group_364" data-name="Group 364">
            <g id="Group_363" data-name="Group 363">
              <g id="Group_360" data-name="Group 360">
                <path id="Path_336" data-name="Path 336" class="cls-12" d="M250.192,183.543l3.533-2.055L253.7,191.1l-3.534,2.055Z"/>
              </g>
              <g id="Group_361" data-name="Group 361">
                <path id="Path_337" data-name="Path 337" class="cls-33" d="M258.172,192.964l3.532-2.054,4.169,7.225-3.532,2.053Z"/>
              </g>
              <g id="Group_362" data-name="Group 362">
                <path id="Path_338" data-name="Path 338" class="cls-12" d="M252.1,182.454l3.533-2.053,4.171,7.226-3.533,2.052Z"/>
              </g>
            </g>
          </g>
          <g id="Group_365" data-name="Group 365">
            <path id="Path_339" data-name="Path 339" class="cls-34" d="M247.517,176.709l17.556,10.137-.033,19.3-2.711-1.553-6.069-10.538-6.108,3.48-2.689-1.526Zm4.585,5.745,4.171,7.225,4.2-2.393-8.371-4.832Zm10.239,17.735.027-9.618-4.2,2.393,4.169,7.225Zm-12.177-7.03,4.2-2.393-4.171-7.223-.028,9.616Z"/>
          </g>
        </g>
        <g id="Group_367" data-name="Group 367">
          <path id="Path_340" data-name="Path 340" class="cls-35" d="M237.607,203.052l-17.566-10.13.011,3.091,17.563,10.13Z"/>
        </g>
        <g id="Group_374" data-name="Group 374">
          <g id="Group_372" data-name="Group 372">
            <g id="Group_371" data-name="Group 371">
              <g id="Group_368" data-name="Group 368">
                <path id="Path_341" data-name="Path 341" class="cls-33" d="M219.224,201.863l3.534-2.057-.029,9.619L219.2,211.48Z"/>
              </g>
              <g id="Group_369" data-name="Group 369">
                <path id="Path_342" data-name="Path 342" class="cls-33" d="M227.2,211.284l3.535-2.053,4.172,7.225-3.533,2.053Z"/>
              </g>
              <g id="Group_370" data-name="Group 370">
                <path id="Path_343" data-name="Path 343" class="cls-33" d="M221.132,200.773l3.535-2.053,4.17,7.226L225.306,208Z"/>
              </g>
              <path id="Path_344" data-name="Path 344" class="cls-35" d="M234.074,205.168v19.3l3.511-2.054.046-16.276,27.409-16.191v16.2l3.549-2.053v-19.3Z"/>
              <path id="Path_345" data-name="Path 345" class="cls-12" d="M251.05,174.656l-34.52,20.373,17.545,10.139,34.515-20.374Z"/>
            </g>
          </g>
          <g id="Group_373" data-name="Group 373">
            <path id="Path_346" data-name="Path 346" class="cls-34" d="M216.529,195.029l17.545,10.139v19.3l-2.715-1.556-6.07-10.538-6.1,3.482-2.656-1.525Zm4.6,5.744L225.306,208l4.2-2.393-8.37-4.833Zm10.241,17.736.026-9.615-4.2,2.39,4.174,7.225ZM219.2,211.48l4.2-2.393-4.169-7.224-.028,9.617Z"/>
          </g>
        </g>
      </g>
    </g>
    <path id="Path_347" data-name="Path 347" class="cls-35" d="M226.226,192.27c6.332,3.655,16.564,3.652,22.855,0s6.257-9.578-.076-13.234a18.085,18.085,0,0,0-3.044-1.372l-21.984,12.975A12.713,12.713,0,0,0,226.226,192.27Z"/>
    <g id="Group_399" data-name="Group 399">
      <path id="Path_348" data-name="Path 348" class="cls-31" d="M224.612,115.153c-.97-.541-1.381,3.009-1.721,1.991-.43-1.289-.781-4.267-1.5-4.418-1.277-.269-3.341,4.731-1.078,7.548.656.816,1.268,1.008,1.8.867C223.427,120.8,225.256,115.512,224.612,115.153Z"/>
      <path id="Path_349" data-name="Path 349" class="cls-34" d="M224.4,118.678a1.707,1.707,0,0,0-1.676-.524,4.409,4.409,0,0,0-2.212,1.6,6.171,6.171,0,0,0-.158,1.943s4.74,11.344,15.32,17.11l1.139-8.43S229.358,127.983,224.4,118.678Z"/>
      <path id="Path_350" data-name="Path 350" class="cls-33" d="M220.1,122a3.212,3.212,0,0,1,1.169-3.049,50.984,50.984,0,0,0,18.022,20.3l-2.953,2.988a4.152,4.152,0,0,0-1.306-2.536C224.351,133.532,220.1,122,220.1,122Z"/>
      <g id="Group_377" data-name="Group 377">
        <path id="Path_351" data-name="Path 351" class="cls-31" d="M235.772,110.753c-.063-1.1-.294-4.05-3.219-4.964-1.247-.391.762,3.871.26,5.129-.137.345-1.267-.785-1.6-.566-.877.571,2.214,3.324,2.748,3.182A2.963,2.963,0,0,0,235.772,110.753Z"/>
        <path id="Path_352" data-name="Path 352" class="cls-34" d="M244.862,129.669a19.38,19.38,0,0,1,1.517-1.983,9.288,9.288,0,0,1,3.263-2.111l2.9-.77s-10.1-3.427-15.066-12.732a1.71,1.71,0,0,0-1.677-.524,4.436,4.436,0,0,0-2.215,1.6,6.3,6.3,0,0,0-.153,1.944A40.026,40.026,0,0,0,244.862,129.669Z"/>
        <path id="Path_353" data-name="Path 353" class="cls-33" d="M244.313,130.49a25.65,25.65,0,0,1,1.872-2.567,49.34,49.34,0,0,1-11.839-15.579,3.212,3.212,0,0,0-1.167,3.051A38.834,38.834,0,0,0,244.313,130.49Z"/>
      </g>
      <g id="Group_398" data-name="Group 398">
        <g id="Group_397" data-name="Group 397">
          <g id="Group_396" data-name="Group 396">
            <g id="Group_394" data-name="Group 394">
              <g id="Group_380" data-name="Group 380">
                <g id="Group_378" data-name="Group 378">
                  <path id="Path_354" data-name="Path 354" d="M244.466,192.119c-.827,1.406-2.8,1.529-3.684,1.44-2.166-.225-3.211-1.225-5.8-2.286-2.51-1.028-2.674-2.017-2.549-2.368,1.291-3.617,3.564-1.619,6.747-.588.941.306,4.34-.319,4.34-.319S244.784,191.582,244.466,192.119Z"/>
                </g>
                <g id="Group_379" data-name="Group 379">
                  <path id="Path_355" data-name="Path 355" class="cls-26" d="M244.466,191.867c-.827,1.4-2.8,1.526-3.684,1.436-2.166-.224-3.211-1.226-5.8-2.285-2.51-1.028-2.674-2.017-2.549-2.367,1.291-3.618,3.564-1.621,6.747-.588.941.3,4.34-.32,4.34-.32S244.784,191.327,244.466,191.867Z"/>
                </g>
              </g>
              <g id="Group_383" data-name="Group 383">
                <g id="Group_381" data-name="Group 381">
                  <path id="Path_356" data-name="Path 356" d="M251.975,187.82c-.828,1.4-2.8,1.529-3.683,1.436-2.166-.222-3.211-1.222-5.8-2.284-2.51-1.029-2.676-2.017-2.551-2.368,1.292-3.617,3.566-1.62,6.75-.588.94.3,4.34-.32,4.34-.32S252.294,187.281,251.975,187.82Z"/>
                </g>
                <g id="Group_382" data-name="Group 382">
                  <path id="Path_357" data-name="Path 357" class="cls-26" d="M251.975,187.565c-.828,1.4-2.8,1.528-3.683,1.437-2.166-.224-3.211-1.224-5.8-2.284-2.51-1.029-2.676-2.018-2.551-2.368,1.292-3.62,3.566-1.62,6.75-.59.94.306,4.34-.318,4.34-.318S252.294,187.026,251.975,187.565Z"/>
                </g>
              </g>
              <g id="Group_390" data-name="Group 390">
                <g id="Group_386" data-name="Group 386">
                  <g id="Group_385" data-name="Group 385">
                    <g id="Group_384" data-name="Group 384">
                      <path id="Path_358" data-name="Path 358" class="cls-36" d="M244.575,150.47c.559,10.971.564,24.645.04,35.563,0-.008.522,2.152,3.89,2.3.636-11.77.658-26.238.069-38.007Q246.573,150.386,244.575,150.47Z"/>
                      <path id="Path_359" data-name="Path 359" class="cls-22" d="M248.574,150.329c.589,11.769.567,26.237-.069,38.007a4.2,4.2,0,0,0,4.151-2.051c.514-11.051.508-24.945-.034-36.037Q250.6,150.272,248.574,150.329Z"/>
                    </g>
                  </g>
                </g>
                <g id="Group_389" data-name="Group 389">
                  <g id="Group_388" data-name="Group 388">
                    <g id="Group_387" data-name="Group 387">
                      <path id="Path_360" data-name="Path 360" class="cls-36" d="M237.05,154.743c.557,10.971.563,24.645.039,35.562,0-.008.523,2.15,3.889,2.3.637-11.771.659-26.239.069-38.007C239.715,154.637,238.38,154.686,237.05,154.743Z"/>
                      <path id="Path_361" data-name="Path 361" class="cls-22" d="M241.047,154.6c.59,11.768.568,26.236-.069,38.007,3.175.1,4.156-2.057,4.152-2.054.513-11.05.508-24.941-.035-36.035C243.743,154.536,242.4,154.563,241.047,154.6Z"/>
                      <path id="Path_362" data-name="Path 362" class="cls-36" d="M245.278,158.1c-.121.766.643,1.332.538,2.1A36.743,36.743,0,0,1,240.3,161.3l.926-3.846Q243.255,157.775,245.278,158.1Z"/>
                      <path id="Path_363" data-name="Path 363" class="cls-36" d="M248.2,153.032c1.438.228,3.212-.329,4.653-.1-.133.846.1,2.017-.015,2.863a20.4,20.4,0,0,1-3.5,2.688,17.439,17.439,0,0,1-1.956,1Q247.693,156.251,248.2,153.032Z"/>
                    </g>
                  </g>
                </g>
              </g>
              <g id="Group_393" data-name="Group 393">
                <g id="Group_392" data-name="Group 392">
                  <g id="Group_391" data-name="Group 391">
                    <path id="Path_364" data-name="Path 364" class="cls-33" d="M240.306,160.807s-3.211,0-4.146-2.411V139.167l8.415-.357Z"/>
                  </g>
                  <path id="Path_365" data-name="Path 365" class="cls-34" d="M233.784,135.423s5.023,3.782,5.9,6.029c1.658,4.258.624,19.355.624,19.355a23.853,23.853,0,0,0,9.01-2.849c3.87-2.329,4.638-5.033,4.638-5.033a61.3,61.3,0,0,1-1.053-6.875c-.013-2.832.843-5.884,1.353-11.243.133-1.383,1.06-7.247.086-8.483-.8-1.014-2.349-2.666-5.118-1.191-1.1.586-4.782.841-7.021,2.222-1.235.761-2.909,4.107-7.182,2.352C231.373,128.208,234.185,133.118,233.784,135.423Z"/>
                  <path id="Path_366" data-name="Path 366" class="cls-33" d="M239.682,129.739l1.134-1.757s5.524,2.489,7.5.353l.041-1.142s.9.754.954,1.3c-.012-.152-.353,2.332-4.495,2.164C242.717,130.567,242.141,129.231,239.682,129.739Z"/>
                  <path id="Path_367" data-name="Path 367" class="cls-12" d="M241.247,127.145l-.927,1.808s4.813.965,7.555.268c1.059-.27,1.375-2.2-.956-3.222-1.833-.8-5.05,1.584-5.05,1.584Z"/>
                  <path id="Path_368" data-name="Path 368" class="cls-31" d="M241.564,124.539a9.64,9.64,0,0,1,.305,3.044,11.488,11.488,0,0,0,5.006.4c.815-.091.64-1.66.64-1.66Z"/>
                  <path id="Path_369" data-name="Path 369" class="cls-31" d="M246.444,112.61c-2.6-2.137-4.079-1.771-7.546.373a4.789,4.789,0,0,0-2.523,4.089c-.224,2.329.694,2.221.618,3.665-.32,6.163,1.556,8.143,4.926,5.973,1.648-1.062,5.6-.383,5.6-.383a7.124,7.124,0,0,1,1.152-3.661A8.413,8.413,0,0,0,246.444,112.61Z"/>
                </g>
              </g>
            </g>
            <g id="Group_395" data-name="Group 395">
              <path id="Path_370" data-name="Path 370" class="cls-32" d="M239.292,122.773s.688-1.085,1.214-1.072.528,1.194-.353,1.928c0,0,1.134-1.379.378-1.806-.109-.064-.472-.017-1.121.9,0,0,.715-.141.48.483C239.89,123.2,239.97,122.662,239.292,122.773Z"/>
            </g>
            <path id="Path_371" data-name="Path 371" class="cls-14" d="M235.019,116.677s1.751-7.7,9.521-5.919c0,0,8.239.746,6.043,8.571l-1.916,6.039s-2.139,2.066-6.748,1.342L240.468,124s2.276-2.111.324-2.855c-1.579-.6-1.768,1.628-1.768,1.628l-1-.292-.132-1.408Z"/>
          </g>
        </g>
      </g>
    </g>
  </g>
</svg>
